<svg width="32" height="32" viewBox="0 0 32 32" fill="none" xmlns="http://www.w3.org/2000/svg">
<rect x="0.25" y="0.25" width="31.5" height="31.5" rx="15.75" stroke="black" stroke-opacity="0.6" stroke-width="0.5"/>
<path d="M15.1465 21.875H11.2507C10.8749 21.875 10.5146 21.7257 10.2489 21.4601C9.98324 21.1944 9.83398 20.8341 9.83398 20.4583V11.9583C9.83398 11.5826 9.98324 11.2223 10.2489 10.9566C10.5146 10.6909 10.8749 10.5417 11.2507 10.5417H19.7507C20.1264 10.5417 20.4867 10.6909 20.7524 10.9566C21.0181 11.2223 21.1673 11.5826 21.1673 11.9583V16.2083M18.334 9.125V11.9583M12.6673 9.125V11.9583M9.83398 14.7917H21.1673M17.6257 20.4583L19.0423 21.875L21.8757 19.0417" stroke="black" stroke-linecap="round" stroke-linejoin="round"/>
</svg>
