<svg width="32" height="32" viewBox="0 0 32 32" fill="none" xmlns="http://www.w3.org/2000/svg">
<rect x="0.25" y="0.25" width="31.5" height="31.5" rx="15.75" stroke="black" stroke-opacity="0.6" stroke-width="0.5"/>
<g clip-path="url(#clip0_159_3686)">
<path d="M15.5059 8.92444C15.8817 8.92446 16.2465 9.04428 16.5479 9.26428L16.6729 9.36487L16.7695 9.45569L17.2529 9.94006L17.2539 9.94104C17.4424 10.1283 17.6815 10.2554 17.9404 10.3073L18.0527 10.3248L18.0801 10.3268L18.1758 10.3326L18.1904 10.3336H18.9131C19.3079 10.3336 19.69 10.4651 19.999 10.7057L20.127 10.816C20.4526 11.1238 20.6491 11.5438 20.6768 11.9908L20.6797 12.1139V12.8082C20.6797 13.1123 20.7835 13.4083 20.9707 13.6451L20.9805 13.6569L20.9912 13.6696L21.0547 13.7399L21.0635 13.7496L21.0723 13.7584L21.5664 14.2535L21.5674 14.2545C21.8863 14.5716 22.0728 14.9984 22.0879 15.4479C22.1029 15.8967 21.9455 16.3339 21.6494 16.6715L21.5576 16.7692L21.0723 17.2545C20.8582 17.47 20.7229 17.7516 20.6885 18.0533L20.6865 18.0807L20.6807 18.1764L20.6797 18.191V18.9137L20.6719 19.0826C20.6346 19.4724 20.4683 19.8406 20.1973 20.1276C19.889 20.4538 19.4683 20.6501 19.0205 20.6774L18.8994 20.6813H18.2051L18.0918 20.6852C17.8289 20.7073 17.5775 20.8068 17.3691 20.9713L17.3564 20.9811L17.3438 20.9918L17.2734 21.0553L17.2637 21.0641L17.2549 21.0739L16.7598 21.567L16.7588 21.568C16.4417 21.8869 16.0149 22.0734 15.5654 22.0885L15.3975 22.0865C15.0111 22.0628 14.642 21.9117 14.3477 21.6559L14.2432 21.5582L13.7598 21.0748L13.7588 21.0729L13.6748 20.9967C13.4725 20.827 13.224 20.7202 12.96 20.6901L12.9463 20.6881L12.9326 20.6871L12.8369 20.6813H12.0996L11.9307 20.6725C11.5967 20.6405 11.2784 20.5144 11.0137 20.3082L10.8857 20.1989C10.5593 19.8905 10.3621 19.4692 10.335 19.0211L10.332 18.9V18.2057L10.3281 18.0924C10.3059 17.8296 10.2064 17.5781 10.042 17.3698L10.0322 17.3571L10.0215 17.3453L9.95801 17.274L9.94922 17.2643L9.93945 17.2555L9.44629 16.7614L9.44531 16.7594L9.33105 16.6354C9.11756 16.3782 8.98143 16.0655 8.93848 15.734L8.9248 15.566C8.90988 15.1201 9.06402 14.6849 9.35645 14.3483L9.45508 14.2438L9.93848 13.7604L9.94043 13.7594C10.1544 13.5439 10.2889 13.2623 10.3232 12.9606L10.3252 12.9469L10.3262 12.9332L10.332 12.8375V12.1139L10.335 11.9918C10.358 11.6157 10.501 11.2581 10.7402 10.9703L10.8496 10.8502C11.1546 10.5453 11.5609 10.3619 11.9912 10.3356L12.0996 10.3326V10.3336H12.8076C13.1109 10.3335 13.4054 10.2305 13.6436 10.0426L13.6562 10.0328L13.668 10.0221L13.7393 9.95862L13.749 9.94983L14.252 9.4469L14.2539 9.44592C14.3771 9.32197 14.5175 9.21676 14.6709 9.1344L14.8281 9.06018C14.9892 8.99316 15.159 8.95041 15.332 8.93323L15.5059 8.92444ZM17.624 12.8756C17.3436 12.8756 17.0734 12.9728 16.8584 13.149L16.7695 13.2291L14.791 15.2067L14.2285 14.6451L14.2178 14.6344L14.2061 14.6246L14.1396 14.566L14.1143 14.5446L14.0205 14.4791C13.7953 14.3368 13.5281 14.2721 13.2607 14.2975L13.1475 14.3141C12.923 14.3571 12.7156 14.4634 12.5488 14.6198L12.4688 14.7018C12.2911 14.9034 12.186 15.1574 12.1689 15.4235L12.167 15.5377C12.1752 15.8063 12.2729 16.0634 12.4424 16.2692L12.5195 16.3541L13.9473 17.7819L13.959 17.7926L14.0254 17.8512L14.0371 17.8619L14.0498 17.8717C14.2822 18.052 14.5727 18.141 14.8662 18.1227C15.1232 18.1065 15.368 18.009 15.5645 17.8453L15.6455 17.7711L18.4785 14.9381L18.5 14.9147L18.5586 14.8483L18.5693 14.8365L18.5791 14.8239C18.7593 14.5914 18.8485 14.301 18.8301 14.0074C18.8139 13.7506 18.7162 13.5065 18.5527 13.3102L18.4785 13.2291C18.2519 13.0026 17.9444 12.8756 17.624 12.8756Z" stroke="black"/>
</g>
<defs>
<clipPath id="clip0_159_3686">
<rect width="17" height="17" fill="white" transform="translate(7 7)"/>
</clipPath>
</defs>
</svg>
